<?xml version="1.0" standalone="no"?>
<!DOCTYPE svg PUBLIC "-//W3C//DTD SVG 20010904//EN"
 "http://www.w3.org/TR/2001/REC-SVG-20010904/DTD/svg10.dtd">
<svg version="1.0" xmlns="http://www.w3.org/2000/svg"
 width="300.000000pt" height="300.000000pt" viewBox="0 0 300.000000 300.000000"
 preserveAspectRatio="xMidYMid meet">
<metadata>
Created by potrace 1.10, written by Peter Selinger 2001-2011
</metadata>
<g transform="translate(0.000000,300.000000) scale(0.100000,-0.100000)"
fill="#000000" stroke="none">
<path d="M2966 1515 l2 -1485 -1112 0 c-1876 1 -1856 1 -1856 -10 0 -7 505
-10 1495 -10 l1495 0 0 1495 c0 1189 -3 1495 -12 1495 -10 0 -13 -303 -12
-1485z"/>
<path d="M1431 2189 c-99 -12 -281 -72 -281 -91 0 -5 -5 -8 -10 -8 -12 0 -73
-41 -78 -53 -2 -4 -8 -5 -13 -1 -5 3 -8 2 -7 -3 2 -5 -14 -25 -34 -46 -21 -21
-38 -34 -38 -30 0 12 -80 -126 -106 -184 -35 -79 -54 -174 -54 -277 0 -115 21
-196 51 -196 19 0 19 -1 5 -16 -9 -8 -16 -17 -16 -19 0 -7 40 -90 60 -125 25
-45 122 -159 135 -159 6 -1 24 -15 42 -31 79 -74 298 -145 418 -135 120 9 175
17 180 26 4 5 13 9 22 9 27 0 177 79 225 119 38 31 84 80 137 147 26 33 90
180 97 224 2 14 6 35 9 48 12 51 6 213 -11 279 -17 70 -73 198 -102 236 -36
46 -129 137 -165 162 -61 40 -153 84 -210 99 -28 8 -51 18 -50 23 1 5 -4 10
-12 10 -8 0 -12 -4 -9 -9 5 -7 -14 -6 -101 6 -11 2 -49 -1 -84 -5z m280 -56
c199 -69 357 -228 421 -423 29 -90 36 -272 14 -361 -60 -241 -255 -435 -496
-495 -97 -24 -282 -15 -372 18 -85 32 -165 80 -232 140 -85 75 -200 258 -162
258 8 0 16 -11 20 -23 11 -45 103 -173 162 -225 68 -61 190 -125 284 -148 89
-22 261 -15 347 14 179 62 324 198 400 376 l21 51 -54 3 -54 3 0 188 0 187
-30 29 -30 29 0 -217 0 -217 -45 0 -45 0 0 75 0 75 -55 0 -55 0 0 35 c0 35 0
35 -45 35 l-46 0 1 160 2 161 -36 39 c-20 22 -37 40 -38 40 -2 0 -2 -139 0
-310 l3 -310 -51 0 -50 0 0 198 0 197 -70 -3 -70 -4 0 -194 0 -194 -35 0 -35
0 0 95 0 95 -35 0 -36 0 3 185 3 185 -42 0 -43 0 0 -280 0 -280 -40 0 -40 0 0
158 0 157 -40 -65 c-38 -63 -39 -68 -40 -157 l0 -93 -59 0 c-70 0 -69 -2 -78
146 -18 320 186 600 501 685 109 29 263 22 377 -18z m-77 -285 c11 -51 16
-199 6 -193 -7 4 -7 -2 0 -19 5 -13 6 -40 3 -59 -5 -30 -2 -35 28 -50 18 -8
37 -13 41 -11 5 3 11 -9 15 -26 7 -35 17 -42 68 -43 38 -1 39 -4 35 -79 -2
-53 26 -78 81 -73 23 2 47 9 52 14 6 6 10 82 10 196 -1 102 2 185 6 185 4 0 7
-81 8 -180 1 -197 3 -205 58 -216 l34 -6 -17 -42 c-37 -89 -57 -99 -57 -28 l0
37 -55 3 c-99 6 -113 5 -124 -10 -14 -18 -78 -17 -93 2 -10 12 -15 13 -32 3
-11 -7 -27 -10 -36 -7 -8 4 -21 1 -29 -5 -7 -6 -20 -9 -29 -5 -8 3 -25 1 -36
-5 -12 -7 -22 -7 -26 -2 -3 5 -18 8 -33 6 -15 -2 -30 -4 -34 -4 -5 -1 -8 -9
-9 -18 0 -14 -2 -15 -6 -3 -3 8 -14 25 -24 38 l-18 23 -21 -21 -22 -22 -15 22
c-10 15 -18 18 -27 11 -7 -6 -22 -8 -34 -4 -14 3 -24 0 -28 -10 -7 -18 -75
-17 -98 2 -22 18 -48 20 -73 4 -14 -9 -23 -11 -28 -4 -5 9 -84 17 -86 9 -11
-56 -9 -92 6 -108 16 -18 19 -18 57 -3 29 12 42 13 51 4 14 -14 50 -14 65 1 9
9 18 8 37 -2 20 -11 31 -11 44 -3 10 7 24 8 32 3 8 -5 19 -5 26 1 7 6 18 7 25
3 16 -10 48 -11 68 -3 8 4 42 3 74 -2 39 -7 63 -6 69 0 7 7 16 7 29 0 12 -6
25 -6 38 1 13 7 26 7 38 1 26 -14 59 11 65 47 4 26 4 25 6 -5 0 -17 -5 -33
-11 -36 -7 -2 9 -5 35 -5 26 -1 52 -4 57 -7 14 -9 24 16 22 53 -2 21 1 31 8
27 5 -3 10 -19 10 -35 0 -36 31 -58 50 -35 7 8 10 24 7 35 -6 22 7 35 23 25 7
-4 6 -13 -1 -26 -15 -29 2 -44 51 -43 35 0 40 -1 26 -11 -9 -7 -16 -17 -16
-22 0 -19 -128 -128 -182 -155 -125 -64 -155 -72 -288 -72 -138 -1 -190 9
-285 56 -70 35 -182 118 -158 118 4 0 -8 11 -27 24 -19 13 -44 41 -55 62 -11
22 -22 41 -25 44 -5 4 -60 100 -60 104 0 0 15 1 32 0 47 -1 57 20 60 117 1 74
12 119 28 119 3 0 5 -46 5 -102 0 -85 3 -106 18 -120 20 -21 66 -23 92 -4 17
12 18 33 19 279 1 241 3 266 18 270 15 4 17 -10 17 -166 1 -175 6 -197 42
-197 11 0 19 -7 20 -17 0 -10 2 -49 3 -87 2 -54 6 -71 21 -82 23 -17 72 -15
87 4 7 8 11 77 11 197 l-1 185 49 0 49 0 0 -183 c0 -208 3 -216 72 -212 69 3
68 2 69 254 0 124 0 247 1 274 0 49 14 64 22 25z m-573 -617 c21 -16 22 -22
11 -45 -9 -20 -19 -26 -42 -26 -29 0 -30 2 -30 45 0 37 3 45 19 45 10 0 29 -8
42 -19z m97 7 c5 -7 9 -26 8 -43 -1 -25 -6 -31 -28 -33 -27 -3 -28 -2 -28 42
0 38 3 46 19 46 10 0 23 -6 29 -12z m139 -55 c-2 -16 -4 -5 -4 22 0 28 2 40 4
28 2 -13 2 -35 0 -50z m55 15 c2 -21 0 -38 -4 -38 -4 0 -8 21 -7 48 1 52 6 48
11 -10z m90 10 c10 -23 15 -44 12 -47 -4 -3 -9 0 -11 7 -3 6 -13 12 -23 12
-10 0 -20 -6 -23 -12 -2 -7 -7 -10 -11 -7 -7 6 24 89 33 89 3 0 14 -19 23 -42z
m283 32 c3 -5 -1 -10 -9 -10 -9 0 -16 5 -16 10 0 6 4 10 9 10 6 0 13 -4 16
-10z m180 0 c3 -5 -1 -10 -9 -10 -12 0 -16 -10 -16 -35 0 -19 -4 -35 -10 -35
-5 0 -10 16 -10 35 0 24 -5 35 -15 35 -8 0 -15 5 -15 10 0 6 15 10 34 10 19 0
38 -4 41 -10z m71 -6 c7 11 17 17 21 13 3 -4 -1 -15 -10 -25 -15 -16 -15 -20
-1 -40 8 -12 11 -22 5 -22 -5 0 -14 7 -19 16 -8 14 -10 14 -21 0 -8 -9 -18
-16 -24 -16 -5 0 -2 9 7 19 14 15 15 24 7 40 -16 29 -13 39 5 16 15 -20 15
-20 30 -1z m-307 -22 c-13 -5 -11 -40 4 -45 7 -4 6 -6 -4 -6 -11 -1 -18 9 -21
27 -6 41 0 54 17 39 7 -7 9 -13 4 -15z m-449 -17 c0 -14 5 -25 10 -25 6 0 10
11 10 25 0 14 5 25 10 25 6 0 10 -14 10 -31 0 -27 -3 -30 -27 -27 -22 2 -29 9
-31 31 -2 15 1 27 7 27 6 0 11 -11 11 -25z m280 0 c0 -14 5 -25 10 -25 6 0 10
11 10 25 0 14 5 25 10 25 6 0 10 -14 10 -31 0 -27 -3 -30 -27 -27 -22 2 -29 9
-31 31 -2 15 1 27 7 27 6 0 11 -11 11 -25z m96 16 c-18 -7 -18 -8 -3 -14 24
-9 21 -37 -3 -37 -11 0 -20 4 -20 10 0 5 8 7 18 4 16 -5 16 -5 0 9 -25 20 -22
37 5 36 20 0 20 -1 3 -8z m212 -23 c2 -16 -1 -28 -7 -28 -6 0 -11 11 -11 25 0
14 -4 25 -10 25 -5 0 -10 -11 -10 -25 0 -14 -4 -25 -10 -25 -5 0 -10 14 -10
31 0 27 3 30 28 27 21 -2 28 -9 30 -30z"/>
<path d="M1365 2136 c-230 -53 -402 -206 -479 -426 -26 -75 -30 -99 -30 -200
-1 -63 2 -127 7 -142 6 -25 12 -28 47 -28 l40 0 0 84 c0 82 1 87 44 159 63
106 78 137 67 137 -5 0 -25 -26 -45 -57 -19 -32 -39 -63 -43 -69 -30 -40 -43
-81 -43 -139 0 -71 -6 -95 -25 -95 -18 0 -26 25 -32 107 -6 70 10 185 28 209
5 6 6 13 3 17 -3 3 5 28 19 56 13 28 27 47 31 43 4 -4 7 -2 6 3 -3 16 12 55
21 55 5 0 9 6 9 13 0 16 158 167 176 167 8 0 14 5 14 11 0 5 5 7 10 4 6 -3 10
-2 10 3 0 27 194 82 290 82 90 0 260 -40 260 -61 0 -5 9 -9 20 -9 11 0 20 -4
20 -10 0 -5 3 -9 8 -8 23 7 120 -72 196 -161 38 -45 102 -185 115 -252 11 -60
10 -237 -2 -256 -12 -19 -47 -16 -48 5 -1 9 -2 22 -4 27 -1 6 -3 77 -3 158
l-2 149 -55 56 c-50 52 -55 56 -70 41 -14 -13 -16 -41 -16 -163 0 -128 -2
-147 -15 -142 -9 3 -36 6 -60 6 -40 0 -44 2 -44 24 0 14 -7 32 -16 40 -8 9
-26 16 -40 16 l-24 0 0 143 0 143 -65 67 c-35 37 -69 67 -74 67 -22 0 -31 -45
-31 -160 l0 -121 -22 15 c-28 20 -178 22 -196 4 -8 -8 -12 -46 -12 -104 0 -92
0 -92 -25 -90 -29 1 -27 -12 -25 203 1 165 2 163 -98 163 -72 0 -72 0 -72
-121 0 -53 -4 -89 -10 -89 -6 0 -10 -68 -10 -185 0 -178 1 -185 20 -185 20 0
20 7 20 280 l0 280 65 0 66 0 -2 -182 -1 -183 31 -3 31 -3 0 -95 c0 -77 3 -94
15 -94 13 0 15 29 15 200 l0 200 90 0 90 0 0 -200 0 -200 28 0 27 0 -3 330 -3
331 65 -68 65 -68 1 -150 0 -151 40 4 40 4 0 -41 0 -41 55 0 55 0 0 -75 c0
-73 1 -75 25 -75 l25 0 0 232 0 232 50 -49 50 -49 0 -184 0 -183 47 3 c44 3
48 5 54 33 14 67 9 212 -11 289 -41 160 -154 313 -292 394 -132 78 -324 110
-463 78z m172 -448 c-3 -7 -5 -2 -5 12 0 14 2 19 5 13 2 -7 2 -19 0 -25z m0
-70 c-3 -8 -6 -5 -6 6 -1 11 2 17 5 13 3 -3 4 -12 1 -19z m0 -70 c-3 -7 -5 -2
-5 12 0 14 2 19 5 13 2 -7 2 -19 0 -25z m0 -50 c-3 -8 -6 -5 -6 6 -1 11 2 17
5 13 3 -3 4 -12 1 -19z m0 -70 c-3 -8 -6 -5 -6 6 -1 11 2 17 5 13 3 -3 4 -12
1 -19z"/>
<path d="M1020 1201 c0 -32 6 -37 28 -22 19 11 11 45 -11 49 -13 3 -17 -3 -17
-27z"/>
<path d="M1120 1220 c0 -5 7 -10 15 -10 8 0 15 5 15 10 0 6 -7 10 -15 10 -8 0
-15 -4 -15 -10z"/>
<path d="M1125 1191 c-7 -12 12 -24 25 -16 11 7 4 25 -10 25 -5 0 -11 -4 -15
-9z"/>
<path d="M1410 1206 c0 -9 5 -16 10 -16 6 0 10 4 10 9 0 6 -4 13 -10 16 -5 3
-10 -1 -10 -9z"/>
</g>
</svg>
